<svg width="20" height="20" viewBox="0 0 20 20" fill="none" xmlns="http://www.w3.org/2000/svg">
<g id="Frame">
<path id="Vector" d="M18.5645 5.27888C18.2852 4.63724 17.8825 4.0558 17.379 3.56709C16.875 3.07693 16.2808 2.6874 15.6288 2.41969C14.9526 2.141 14.2274 1.99834 13.4952 2.00001C12.468 2.00001 11.4658 2.27911 10.5948 2.80629C10.3865 2.9324 10.1886 3.07092 10.001 3.22184C9.81351 3.07092 9.61557 2.9324 9.40721 2.80629C8.53628 2.27911 7.53408 2.00001 6.50688 2.00001C5.76721 2.00001 5.05046 2.1406 4.3733 2.41969C3.71906 2.68845 3.12941 3.07505 2.6231 3.56709C2.11887 4.05524 1.71608 4.63683 1.43755 5.27888C1.14793 5.94665 1 6.65576 1 7.38554C1 8.07398 1.14168 8.79136 1.42297 9.52115C1.65841 10.131 1.99595 10.7636 2.42725 11.4025C3.11066 12.4134 4.05035 13.4678 5.21715 14.5366C7.1507 16.3084 9.06551 17.5323 9.14677 17.5819L9.64057 17.8961C9.85935 18.0346 10.1406 18.0346 10.3594 17.8961L10.8532 17.5819C10.9345 17.5302 12.8472 16.3084 14.7828 14.5366C15.9496 13.4678 16.8893 12.4134 17.5727 11.4025C18.004 10.7636 18.3437 10.131 18.577 9.52115C18.8583 8.79136 19 8.07398 19 7.38554C19.0021 6.65576 18.8541 5.94665 18.5645 5.27888ZM10.001 16.2608C10.001 16.2608 2.58351 11.5451 2.58351 7.38554C2.58351 5.27888 4.33997 3.57122 6.50688 3.57122C8.02997 3.57122 9.35096 4.41472 10.001 5.64688C10.6511 4.41472 11.9721 3.57122 13.4952 3.57122C15.6621 3.57122 17.4185 5.27888 17.4185 7.38554C17.4185 11.5451 10.001 16.2608 10.001 16.2608Z" fill="currentColor"/>
</g>
</svg>
